<?xml version="1.0" encoding="utf-8"?>
<svg xmlns="http://www.w3.org/2000/svg" viewBox="0 0 563.78668 155.42667" height="155.42667" width="563.78668" id="svg2" version="1.1">
  <g transform="matrix(1.3333333,0,0,-1.3333333,0,155.42667)" id="g10">
    <g transform="scale(0.1)" id="g12">
      <path id="path14" style="fill:#37a033;fill-opacity:1;fill-rule:nonzero;stroke:none" d="m 248.02,657.809 c 0,-12.891 -10.735,-23.625 -23.606,-23.625 H 35.4414 c -12.8984,0 -23.6289,10.734 -23.6289,23.625 v 188.957 c 0,12.879 10.7305,23.621 23.6289,23.621 H 224.414 c 12.871,0 23.606,-10.742 23.606,-23.621 V 657.809"/>
      <path id="path16" style="fill:#37a033;fill-opacity:1;fill-rule:nonzero;stroke:none" d="m 531.484,657.809 c 0,-12.891 -10.73,-23.625 -23.601,-23.625 H 318.906 c -12.898,0 -23.633,10.734 -23.633,23.625 v 188.957 c 0,12.879 10.735,23.621 23.633,23.621 h 188.977 c 12.871,0 23.601,-10.742 23.601,-23.621 V 657.809"/>
      <path id="path18" style="fill:#37a033;fill-opacity:1;fill-rule:nonzero;stroke:none" d="m 531.484,657.809 c 0,-12.891 -10.73,-23.625 -23.601,-23.625 H 318.906 c -12.898,0 -23.633,10.734 -23.633,23.625 v 188.957 c 0,12.879 10.735,23.621 23.633,23.621 h 188.977 c 12.871,0 23.601,-10.742 23.601,-23.621 V 657.809"/>
      <path id="path20" style="fill:#37a033;fill-opacity:1;fill-rule:nonzero;stroke:none" d="m 814.941,941.27 c 0,-12.891 -10.73,-23.622 -23.601,-23.622 H 602.363 c -12.89,0 -23.625,10.731 -23.625,23.622 v 188.96 c 0,12.88 10.735,23.62 23.625,23.62 H 791.34 c 12.871,0 23.601,-10.74 23.601,-23.62 V 941.27"/>
      <path id="path22" style="fill:#37a033;fill-opacity:1;fill-rule:nonzero;stroke:none" d="m 814.941,374.348 c 0,-12.891 -10.73,-23.625 -23.601,-23.625 H 602.363 c -12.89,0 -23.625,10.734 -23.625,23.625 v 188.953 c 0,12.883 10.735,23.625 23.625,23.625 H 791.34 c 12.871,0 23.601,-10.742 23.601,-23.625 V 374.348"/>
      <path id="path24" style="fill:#37a033;fill-opacity:1;fill-rule:nonzero;stroke:none" d="m 531.484,941.27 c 0,-12.891 -10.73,-23.622 -23.601,-23.622 H 318.906 c -12.898,0 -23.633,10.731 -23.633,23.622 v 188.96 c 0,12.88 10.735,23.62 23.633,23.62 h 188.977 c 12.871,0 23.601,-10.74 23.601,-23.62 V 941.27"/>
      <path id="path26" style="fill:#37a033;fill-opacity:1;fill-rule:nonzero;stroke:none" d="m 531.484,90.8789 c 0,-12.8906 -10.73,-23.6172 -23.601,-23.6172 H 318.906 c -12.898,0 -23.633,10.7266 -23.633,23.6172 V 279.836 c 0,12.879 10.735,23.621 23.633,23.621 h 188.977 c 12.871,0 23.601,-10.742 23.601,-23.621 V 90.8789"/>
      <path id="path28" style="fill:#37a033;fill-opacity:1;fill-rule:nonzero;stroke:none" d="m 531.484,374.348 c 0,-12.891 -10.73,-23.625 -23.601,-23.625 H 318.906 c -12.898,0 -23.633,10.734 -23.633,23.625 v 188.953 c 0,12.883 10.735,23.625 23.633,23.625 h 188.977 c 12.871,0 23.601,-10.742 23.601,-23.625 V 374.348"/>
      <path id="path30" style="fill:#37a033;fill-opacity:1;fill-rule:nonzero;stroke:none" d="m 248.02,90.8789 c 0,-12.8906 -10.735,-23.6172 -23.606,-23.6172 H 35.4414 c -12.8984,0 -23.6289,10.7266 -23.6289,23.6172 V 279.836 c 0,12.879 10.7305,23.621 23.6289,23.621 H 224.414 c 12.871,0 23.606,-10.742 23.606,-23.621 V 90.8789"/>
      <path id="path32" style="fill:#37a033;fill-opacity:1;fill-rule:nonzero;stroke:none" d="m 248.02,374.348 c 0,-12.891 -10.735,-23.625 -23.606,-23.625 H 35.4414 c -12.8984,0 -23.6289,10.734 -23.6289,23.625 v 188.953 c 0,12.883 10.7305,23.625 23.6289,23.625 H 224.414 c 12.871,0 23.606,-10.742 23.606,-23.625 V 374.348"/>
      <path id="path34" style="fill:#cf181f;fill-opacity:1;fill-rule:nonzero;stroke:none" d="M 259.824,1035.75 C 259.824,964 201.66,905.836 129.91,905.836 58.1641,905.836 0,964 0,1035.75 c 0,71.75 58.1641,129.91 129.91,129.91 71.75,0 129.914,-58.16 129.914,-129.91"/>
      <path id="path36" style="fill-opacity: 1; fill-rule: nonzero; stroke: none; fill: rgb(226, 232, 240);" d="M 980.305 578.091 L 1030.45 578.091 L 1030.45 814.325 L 980.305 814.325 L 980.305 578.091"/>
      <path id="path38" style="fill-opacity: 1; fill-rule: nonzero; stroke: none; fill: rgb(226, 232, 240);" d="M 1255.53 702.516 C 1255.53 689.802 1256.34 668.091 1257.95 637.399 L 1256.82 637.399 L 1154.05 814.325 L 1090.78 814.325 L 1090.78 578.091 L 1135.61 578.091 L 1135.61 689.262 C 1135.61 702.731 1134.57 725.251 1132.53 756.786 L 1133.99 756.786 L 1236.91 578.091 L 1300.68 578.091 L 1300.68 814.325 L 1255.53 814.325 L 1255.53 702.516"/>
      <path id="path40" style="fill-opacity: 1; fill-rule: nonzero; stroke: none; fill: rgb(226, 232, 240);" d="M 1442.12 714.47 C 1425.39 722.438 1414.79 727.946 1410.31 731.012 C 1405.83 734.079 1402.58 737.282 1400.53 740.544 C 1398.47 743.837 1397.44 747.704 1397.44 752.106 C 1397.44 759.196 1399.98 764.977 1405.06 769.391 C 1410.12 773.813 1417.4 776.012 1426.91 776.012 C 1434.88 776.012 1443.01 774.985 1451.25 772.946 C 1459.52 770.895 1469.94 767.302 1482.58 762.126 L 1498.77 801.052 C 1486.56 806.337 1474.88 810.427 1463.71 813.337 C 1452.56 816.235 1440.83 817.704 1428.52 817.704 C 1403.48 817.704 1383.89 811.716 1369.7 799.782 C 1355.51 787.809 1348.41 771.391 1348.41 750.485 C 1348.41 739.391 1350.57 729.704 1354.88 721.384 C 1359.2 713.122 1364.96 705.856 1372.2 699.595 C 1379.42 693.368 1390.27 686.841 1404.73 680.048 C 1420.16 672.72 1430.39 667.411 1435.41 664.048 C 1440.43 660.712 1444.22 657.255 1446.82 653.637 C 1449.41 650.005 1450.69 645.907 1450.69 641.274 C 1450.69 632.973 1447.75 626.747 1441.88 622.524 C 1435.98 618.329 1427.56 616.255 1416.54 616.255 C 1407.36 616.255 1397.25 617.68 1386.19 620.591 C 1375.14 623.52 1361.62 628.52 1345.66 635.63 L 1345.66 589.087 C 1365.08 579.618 1387.4 574.872 1412.66 574.872 C 1440.06 574.872 1461.46 581.02 1476.84 593.29 C 1492.22 605.575 1499.88 622.372 1499.88 643.716 C 1499.88 659.087 1495.79 672.118 1487.6 682.704 C 1479.39 693.329 1464.24 703.891 1442.12 714.47"/>
      <path id="path42" style="fill-opacity: 1; fill-rule: nonzero; stroke: none; fill: rgb(226, 232, 240);" d="M 1520.34 772.634 L 1584.6 772.634 L 1584.6 578.091 L 1634.78 578.091 L 1634.78 772.634 L 1699.01 772.634 L 1699.01 814.325 L 1520.34 814.325 L 1520.34 772.634"/>
      <path id="path44" style="fill-opacity: 1; fill-rule: nonzero; stroke: none; fill: rgb(226, 232, 240);" d="M 1735.44 578.091 L 1785.6 578.091 L 1785.6 814.325 L 1735.44 814.325 L 1735.44 578.091"/>
      <path id="path46" style="fill-opacity: 1; fill-rule: nonzero; stroke: none; fill: rgb(226, 232, 240);" d="M 1822.02 772.634 L 1886.28 772.634 L 1886.28 578.091 L 1936.46 578.091 L 1936.46 772.634 L 2000.69 772.634 L 2000.69 814.325 L 1822.02 814.325 L 1822.02 772.634"/>
      <path id="path48" style="fill-opacity: 1; fill-rule: nonzero; stroke: none; fill: rgb(226, 232, 240);" d="M 2179.95 670.016 C 2179.95 651.716 2176.26 638.298 2168.86 629.704 C 2161.47 621.169 2149.58 616.872 2133.19 616.872 C 2116.24 616.872 2104.11 621.13 2096.77 629.626 C 2089.44 638.141 2085.77 651.52 2085.77 669.704 L 2085.77 814.333 L 2035.75 814.333 L 2035.75 662.126 C 2035.75 635.095 2044.17 613.786 2060.99 598.22 C 2077.82 582.634 2101.46 574.86 2131.88 574.86 C 2152.06 574.86 2169.54 578.356 2184.33 585.368 C 2199.11 592.36 2210.4 602.438 2218.23 615.602 C 2226.04 628.708 2229.95 644.02 2229.95 661.481 L 2229.95 814.333 L 2179.95 814.333 L 2179.95 670.016"/>
      <path id="path50" style="fill-opacity: 1; fill-rule: nonzero; stroke: none; fill: rgb(226, 232, 240);" d="M 2265.52 772.634 L 2329.78 772.634 L 2329.78 578.091 L 2379.95 578.091 L 2379.95 772.634 L 2444.19 772.634 L 2444.19 814.325 L 2265.52 814.325 L 2265.52 772.634"/>
      <path id="path52" style="fill-opacity: 1; fill-rule: nonzero; stroke: none; fill: rgb(226, 232, 240);" d="M 2583.58 616.891 C 2563.62 616.891 2548.62 623.552 2538.58 636.911 C 2528.56 650.27 2523.54 670.134 2523.54 696.54 C 2523.54 722.927 2528.6 742.829 2538.76 756.247 C 2548.89 769.645 2563.95 776.364 2583.91 776.364 C 2623.72 776.364 2643.62 749.743 2643.62 696.54 C 2643.62 643.454 2623.6 616.891 2583.58 616.891 Z M 2583.91 818.044 C 2547.55 818.044 2519.62 807.673 2500.16 786.95 C 2480.67 766.208 2470.93 736.169 2470.93 696.872 C 2470.93 657.536 2480.63 627.38 2500.06 606.384 C 2519.48 585.368 2547.33 574.86 2583.58 574.86 C 2619.83 574.86 2647.68 585.368 2667.1 606.384 C 2686.5 627.38 2696.22 657.438 2696.22 696.54 C 2696.22 735.759 2686.6 765.798 2667.33 786.696 C 2648.08 807.595 2620.25 818.044 2583.91 818.044"/>
      <path id="path54" style="fill-opacity: 1; fill-rule: nonzero; stroke: none; fill: rgb(226, 232, 240);" d="M 2831.38 578.091 L 2880.71 578.091 L 2880.71 671.481 L 2961.01 671.481 L 2961.01 712.36 L 2880.71 712.36 L 2880.71 773.278 L 2966.98 773.278 L 2966.98 814.325 L 2831.38 814.325 L 2831.38 578.091"/>
      <path id="path56" style="fill-opacity: 1; fill-rule: nonzero; stroke: none; fill: rgb(226, 232, 240);" d="M 3016.49 578.091 L 3152.76 578.091 L 3152.76 619.477 L 3066.65 619.477 L 3066.65 680.368 L 3146.77 680.368 L 3146.77 721.403 L 3066.65 721.403 L 3066.65 773.278 L 3152.76 773.278 L 3152.76 814.325 L 3016.49 814.325 L 3016.49 578.091"/>
      <path id="path58" style="fill-opacity: 1; fill-rule: nonzero; stroke: none; fill: rgb(226, 232, 240);" d="M 3273.84 619.477 L 3252.29 619.477 L 3252.29 773.278 L 3278.99 773.278 C 3323.9 773.278 3346.34 747.907 3346.34 697.165 C 3346.34 645.368 3322.16 619.477 3273.84 619.477 Z M 3276.42 814.325 L 3202.14 814.325 L 3202.14 578.091 L 3269.13 578.091 C 3311.01 578.091 3343.02 588.434 3365.19 609.137 C 3387.35 629.802 3398.45 659.587 3398.45 698.473 C 3398.45 734.977 3387.76 763.415 3366.42 783.786 C 3345.05 804.137 3315.05 814.325 3276.42 814.325"/>
      <path id="path60" style="fill-opacity: 1; fill-rule: nonzero; stroke: none; fill: rgb(226, 232, 240);" d="M 3447.49 578.091 L 3583.76 578.091 L 3583.76 619.477 L 3497.65 619.477 L 3497.65 680.368 L 3577.74 680.368 L 3577.74 721.403 L 3497.65 721.403 L 3497.65 773.278 L 3583.76 773.278 L 3583.76 814.325 L 3447.49 814.325 L 3447.49 578.091"/>
      <path id="path62" style="fill-opacity: 1; fill-rule: nonzero; stroke: none; fill: rgb(226, 232, 240);" d="M 3734.58 717.36 C 3727.02 712.087 3715.32 709.462 3699.46 709.462 L 3683.27 709.462 L 3683.27 773.278 L 3698.51 773.278 C 3714.68 773.278 3726.61 770.895 3734.35 766.169 C 3742.06 761.442 3745.91 753.454 3745.91 742.243 C 3745.91 730.934 3742.14 722.653 3734.58 717.36 Z M 3785.09 706.481 C 3792.72 717.282 3796.57 729.645 3796.57 743.552 C 3796.57 767.36 3788.86 785.095 3773.43 796.786 C 3758 808.473 3734.21 814.325 3702.06 814.325 L 3633.12 814.325 L 3633.12 578.091 L 3683.27 578.091 L 3683.27 668.747 L 3709.99 668.747 L 3766.46 578.091 L 3822.14 578.091 C 3811.36 593.61 3788.15 627.927 3752.55 681.012 C 3766.57 687.165 3777.43 695.63 3785.09 706.481"/>
      <path id="path64" style="fill-opacity: 1; fill-rule: nonzero; stroke: none; fill: rgb(226, 232, 240);" d="M 3906.7 676.313 C 3923.54 730.727 3933.74 764.833 3937.29 778.622 C 3938.16 774.731 3939.59 769.438 3941.58 762.782 C 3943.58 756.098 3952.51 727.294 3968.38 676.313 L 3906.7 676.313 Z M 3906.39 815.282 L 3822.87 578.091 L 3876.93 578.091 L 3894.08 634.325 L 3980.35 634.325 L 3997.51 578.091 L 4051.56 578.091 L 3967.71 815.282 L 3906.39 815.282"/>
      <path id="path66" style="fill-opacity: 1; fill-rule: nonzero; stroke: none; fill: rgb(226, 232, 240);" d="M 4132.43 619.477 L 4132.43 814.325 L 4082.28 814.325 L 4082.28 578.091 L 4228.41 578.091 L 4228.41 619.477 L 4132.43 619.477"/>
      <path id="path68" style="fill-opacity: 1; fill-rule: nonzero; stroke: none; fill: rgb(226, 232, 240);" d="M 1068.54 325.637 L 1067.57 325.637 L 1011.37 471.77 L 980.309 471.77 L 980.309 294.641 L 999.363 294.641 L 999.363 407.325 C 999.363 424.454 998.785 439.239 997.66 451.68 L 998.633 451.68 L 1058.83 294.641 L 1075.46 294.641 L 1136.15 451.427 L 1137.12 451.427 C 1135.98 436.095 1135.42 421.856 1135.42 408.79 L 1135.42 294.641 L 1156.05 294.641 L 1156.05 471.77 L 1125.22 471.77 L 1068.54 325.637"/>
      <path id="path70" style="fill-opacity: 1; fill-rule: nonzero; stroke: none; fill: rgb(226, 232, 240);" d="M 1278.3 347.95 C 1278.3 335.587 1274.71 325.977 1267.55 319.122 C 1260.39 312.247 1250.53 308.809 1238 308.809 C 1230.07 308.809 1223.9 310.723 1219.48 314.493 C 1215.07 318.313 1212.86 323.848 1212.86 331.106 C 1212.86 340.403 1216.42 347.247 1223.49 351.641 C 1230.57 356.055 1242.13 358.516 1258.14 359.102 L 1278.3 359.942 L 1278.3 347.95 Z M 1251.71 429.63 C 1243.87 429.63 1236.04 428.626 1228.22 426.602 C 1220.41 424.583 1213.24 421.798 1206.67 418.243 L 1212.86 402.845 C 1226.88 409.641 1239.41 413.02 1250.49 413.02 C 1260.37 413.02 1267.55 410.559 1272.03 405.579 C 1276.54 400.606 1278.79 392.903 1278.79 382.501 L 1278.79 374.259 L 1256.19 373.516 C 1213.24 372.227 1191.74 358.165 1191.74 331.348 C 1191.74 318.829 1195.49 309.18 1202.97 302.384 C 1210.47 295.606 1220.79 292.208 1233.99 292.208 C 1243.87 292.208 1252.1 293.692 1258.68 296.641 C 1265.29 299.571 1271.9 305.216 1278.54 313.536 L 1279.51 313.536 L 1283.52 294.63 L 1298.45 294.63 L 1298.45 385.274 C 1298.45 400.794 1294.63 412.052 1286.98 419.083 C 1279.34 426.114 1267.57 429.63 1251.71 429.63"/>
      <path id="path72" style="fill-opacity: 1; fill-rule: nonzero; stroke: none; fill: rgb(226, 232, 240);" d="M 1382.93 308.809 C 1376.29 308.809 1371.07 310.938 1367.28 315.235 C 1363.46 319.512 1361.57 325.645 1361.57 333.645 L 1361.57 411.817 L 1400.16 411.817 L 1400.16 427.442 L 1361.57 427.442 L 1361.57 458.223 L 1349.9 458.223 L 1341.41 429.876 L 1322.34 421.516 L 1322.34 411.817 L 1341.41 411.817 L 1341.41 332.805 C 1341.41 305.743 1354.28 292.188 1380.01 292.188 C 1383.42 292.188 1387.23 292.559 1391.47 293.243 C 1395.74 293.927 1398.96 294.786 1401.13 295.841 L 1401.13 311.231 C 1399.2 310.684 1396.56 310.118 1393.25 309.591 C 1389.92 309.063 1386.48 308.809 1382.93 308.809"/>
      <path id="path74" style="fill-opacity: 1; fill-rule: nonzero; stroke: none; fill: rgb(226, 232, 240);" d="M 1511.41 322.305 C 1504.59 313.477 1494.55 309.044 1481.37 309.044 C 1468.18 309.044 1458.18 313.477 1451.39 322.384 C 1444.59 331.27 1441.19 344.2 1441.19 361.153 C 1441.19 378.282 1444.55 391.173 1451.26 399.825 C 1457.97 408.458 1467.95 412.774 1481.13 412.774 C 1494.48 412.774 1504.59 408.399 1511.41 399.63 C 1518.26 390.88 1521.68 378.048 1521.68 361.153 C 1521.68 344.122 1518.26 331.173 1511.41 322.305 Z M 1481.73 429.864 C 1462.48 429.864 1447.42 423.829 1436.58 411.759 C 1425.73 399.669 1420.31 382.794 1420.31 361.153 C 1420.31 347.188 1422.81 334.981 1427.84 324.552 C 1432.85 314.141 1439.98 306.153 1449.2 300.567 C 1458.42 295.001 1468.98 292.188 1480.88 292.188 C 1500.16 292.188 1515.24 298.302 1526.17 310.45 C 1537.09 322.618 1542.55 339.512 1542.55 361.153 C 1542.55 382.227 1537.07 398.966 1526.11 411.348 C 1515.14 423.692 1500.35 429.864 1481.73 429.864"/>
      <path id="path76" style="fill-opacity: 1; fill-rule: nonzero; stroke: none; fill: rgb(226, 232, 240);" d="M 1723.53 369.024 L 1763.21 369.024 L 1763.21 314.493 C 1751.47 311.68 1739.46 310.255 1727.15 310.255 C 1704.5 310.255 1687.33 316.427 1675.62 328.77 C 1663.94 341.153 1658.1 359.298 1658.1 383.204 C 1658.1 405.977 1664.15 423.79 1676.3 436.661 C 1688.43 449.493 1705.3 455.919 1726.9 455.919 C 1741.73 455.919 1757.16 452.52 1773.15 445.743 L 1781.18 463.927 C 1764.83 470.841 1747.18 474.317 1728.25 474.317 C 1709.54 474.317 1693.23 470.665 1679.33 463.36 C 1665.41 456.075 1654.75 445.489 1647.33 431.602 C 1639.93 417.755 1636.23 401.602 1636.23 383.204 C 1636.23 354.434 1643.71 332.071 1658.69 316.134 C 1673.66 300.157 1694.58 292.188 1721.45 292.188 C 1734.24 292.188 1745.5 292.97 1755.21 294.512 C 1764.91 296.036 1774.44 298.282 1783.84 301.29 L 1783.84 387.423 L 1723.53 387.423 L 1723.53 369.024"/>
      <path id="path78" style="fill-opacity: 1; fill-rule: nonzero; stroke: none; fill: rgb(226, 232, 240);" d="M 1861.19 422.833 C 1854.22 418.145 1848.28 411.485 1843.34 402.833 L 1842.36 402.833 L 1840.06 427.434 L 1823.42 427.434 L 1823.42 294.641 L 1843.59 294.641 L 1843.59 365.88 C 1843.59 378.887 1847.4 389.747 1855.06 398.458 C 1862.7 407.2 1871.89 411.555 1882.68 411.555 C 1886.86 411.555 1891.72 410.958 1897.23 409.766 L 1900.04 428.411 C 1895.33 429.376 1890.02 429.864 1884.12 429.864 C 1875.8 429.864 1868.14 427.532 1861.19 422.833"/>
      <path id="path80" style="fill-opacity: 1; fill-rule: nonzero; stroke: none; fill: rgb(226, 232, 240);" d="M 2008.6 322.298 C 2001.79 313.47 1991.75 309.036 1978.56 309.036 C 1965.38 309.036 1955.38 313.47 1948.58 322.376 C 1941.79 331.262 1938.39 344.192 1938.39 361.145 C 1938.39 378.274 1941.75 391.165 1948.46 399.817 C 1955.17 408.45 1965.15 412.766 1978.33 412.766 C 1991.68 412.766 2001.79 408.391 2008.6 399.622 C 2015.46 390.872 2018.88 378.04 2018.88 361.145 C 2018.88 344.114 2015.46 331.165 2008.6 322.298 Z M 1978.93 429.876 C 1959.68 429.876 1944.62 423.821 1933.78 411.751 C 1922.93 399.661 1917.51 382.786 1917.51 361.145 C 1917.51 347.18 1920.01 334.993 1925.04 324.544 C 1930.05 314.134 1937.18 306.145 1946.4 300.579 C 1955.62 294.993 1966.18 292.2 1978.08 292.2 C 1997.35 292.2 2012.44 298.294 2023.37 310.442 C 2034.29 322.61 2039.75 339.505 2039.75 361.145 C 2039.75 382.239 2034.27 398.958 2023.31 411.341 C 2012.33 423.684 1997.55 429.876 1978.93 429.876"/>
      <path id="path82" style="fill-opacity: 1; fill-rule: nonzero; stroke: none; fill: rgb(226, 232, 240);" d="M 2120.58 370.098 C 2109.1 374.415 2101.31 377.657 2097.28 379.942 C 2093.23 382.188 2090.29 384.571 2088.47 387.091 C 2086.65 389.591 2085.73 392.618 2085.73 396.173 C 2085.73 401.407 2088.16 405.528 2093.03 408.516 C 2097.87 411.505 2105.1 413.009 2114.63 413.009 C 2125.48 413.009 2137.58 410.274 2150.94 404.786 L 2158.1 421.134 C 2144.4 426.954 2130.41 429.864 2116.09 429.864 C 2100.72 429.864 2088.61 426.739 2079.79 420.45 C 2070.98 414.2 2066.56 405.665 2066.56 394.825 C 2066.56 388.77 2067.83 383.575 2070.38 379.2 C 2072.94 374.845 2076.82 370.938 2082.03 367.52 C 2087.27 364.083 2096.05 360.059 2108.44 355.45 C 2121.47 350.43 2130.23 346.095 2134.72 342.423 C 2139.21 338.751 2141.45 334.317 2141.45 329.141 C 2141.45 322.305 2138.63 317.169 2132.96 313.829 C 2127.29 310.47 2119.22 308.79 2108.68 308.79 C 2101.89 308.79 2094.82 309.727 2087.51 311.583 C 2080.18 313.438 2073.32 315.977 2066.91 319.239 L 2066.91 300.567 C 2076.8 295.001 2090.57 292.188 2108.2 292.188 C 2124.86 292.188 2137.82 295.548 2147.04 302.247 C 2156.27 308.946 2160.88 318.477 2160.88 330.86 C 2160.88 339.649 2158.12 346.973 2152.56 352.794 C 2147.03 358.595 2136.37 364.376 2120.58 370.098"/>
      <path id="path84" style="fill-opacity: 1; fill-rule: nonzero; stroke: none; fill: rgb(226, 232, 240);" d="M 2239.17 370.098 C 2227.7 374.395 2219.9 377.657 2215.87 379.942 C 2211.83 382.188 2208.89 384.571 2207.06 387.091 C 2205.24 389.591 2204.33 392.618 2204.33 396.173 C 2204.33 401.407 2206.76 405.528 2211.62 408.516 C 2216.46 411.505 2223.69 413.009 2233.22 413.009 C 2244.07 413.009 2256.17 410.274 2269.53 404.786 L 2276.69 421.114 C 2263 426.954 2249 429.864 2234.69 429.864 C 2219.32 429.864 2207.21 426.739 2198.38 420.45 C 2189.57 414.2 2185.16 405.665 2185.16 394.825 C 2185.16 388.77 2186.43 383.575 2188.97 379.2 C 2191.53 374.825 2195.41 370.938 2200.63 367.52 C 2205.86 364.083 2214.65 360.059 2227.03 355.43 C 2240.07 350.43 2248.83 346.095 2253.31 342.423 C 2257.8 338.751 2260.04 334.317 2260.04 329.141 C 2260.04 322.286 2257.23 317.169 2251.55 313.829 C 2245.89 310.47 2237.81 308.79 2227.28 308.79 C 2220.49 308.79 2213.42 309.727 2206.1 311.583 C 2198.77 313.438 2191.91 315.977 2185.51 319.22 L 2185.51 300.567 C 2195.39 294.981 2209.16 292.188 2226.8 292.188 C 2243.46 292.188 2256.42 295.548 2265.63 302.247 C 2274.86 308.946 2279.47 318.477 2279.47 330.86 C 2279.47 339.649 2276.71 346.973 2271.15 352.774 C 2265.63 358.595 2254.96 364.376 2239.17 370.098"/>
      <path id="path86" style="fill-opacity: 1; fill-rule: nonzero; stroke: none; fill: rgb(226, 232, 240);" d="M 2395.95 322.298 C 2389.13 313.47 2379.09 309.055 2365.91 309.055 C 2352.72 309.055 2342.72 313.47 2335.93 322.376 C 2329.13 331.262 2325.73 344.192 2325.73 361.145 C 2325.73 378.294 2329.09 391.165 2335.8 399.817 C 2342.51 408.45 2352.49 412.766 2365.67 412.766 C 2379.02 412.766 2389.13 408.391 2395.95 399.622 C 2402.8 390.872 2406.22 378.04 2406.22 361.145 C 2406.22 344.114 2402.8 331.165 2395.95 322.298 Z M 2366.27 429.876 C 2347.02 429.876 2331.96 423.821 2321.12 411.751 C 2310.27 399.661 2304.85 382.786 2304.85 361.145 C 2304.85 347.18 2307.35 334.993 2312.38 324.544 C 2317.39 314.134 2324.52 306.145 2333.74 300.579 C 2342.96 294.993 2353.53 292.2 2365.42 292.2 C 2384.7 292.2 2399.79 298.294 2410.71 310.442 C 2421.63 322.61 2427.09 339.505 2427.09 361.145 C 2427.09 382.239 2421.61 398.958 2410.65 411.341 C 2399.68 423.684 2384.89 429.876 2366.27 429.876"/>
      <path id="path88" style="fill-opacity: 1; fill-rule: nonzero; stroke: none; fill: rgb(226, 232, 240);" d="M 2616.44 356.399 C 2616.44 339.759 2613.33 327.708 2607.14 320.227 C 2600.95 312.747 2590.99 309.016 2577.22 309.016 C 2565.16 309.016 2556.03 313.352 2549.78 321.985 C 2543.55 330.637 2540.45 343.43 2540.45 360.403 C 2540.45 377.122 2543.57 390.071 2549.85 399.231 C 2556.12 408.411 2565.16 413.001 2576.98 413.001 C 2590.74 413.001 2600.75 408.997 2607.03 400.95 C 2613.29 392.923 2616.44 379.485 2616.44 360.637 L 2616.44 356.399 Z M 2616.44 429.134 L 2616.92 419.778 L 2617.76 410.188 L 2616.2 410.188 C 2606.56 423.294 2592.72 429.837 2574.68 429.837 C 2557.35 429.837 2543.84 423.782 2534.13 411.653 C 2524.42 399.544 2519.56 382.552 2519.56 360.637 C 2519.56 338.743 2524.4 321.887 2534.07 309.993 C 2543.74 298.137 2557.28 292.18 2574.68 292.18 C 2593.21 292.18 2607.12 298.919 2616.44 312.415 L 2617.53 312.415 L 2620.21 294.622 L 2636.58 294.622 L 2636.58 483.177 L 2616.44 483.177 L 2616.44 429.134"/>
      <path id="path90" style="fill-opacity: 1; fill-rule: nonzero; stroke: none; fill: rgb(226, 232, 240);" d="M 2763.02 322.317 C 2756.2 313.489 2746.16 309.055 2732.98 309.055 C 2719.79 309.055 2709.79 313.489 2703 322.376 C 2696.2 331.262 2692.8 344.192 2692.8 361.165 C 2692.8 378.294 2696.16 391.184 2702.87 399.817 C 2709.58 408.45 2719.56 412.786 2732.74 412.786 C 2746.09 412.786 2756.2 408.391 2763.02 399.622 C 2769.87 390.872 2773.29 378.04 2773.29 361.165 C 2773.29 344.114 2769.87 331.184 2763.02 322.317 Z M 2733.34 429.876 C 2714.09 429.876 2699.03 423.821 2688.19 411.751 C 2677.34 399.661 2671.92 382.805 2671.92 361.165 C 2671.92 347.18 2674.42 334.993 2679.45 324.563 C 2684.46 314.134 2691.59 306.145 2700.81 300.579 C 2710.03 295.012 2720.6 292.2 2732.49 292.2 C 2751.77 292.2 2766.86 298.294 2777.78 310.462 C 2788.7 322.61 2794.16 339.524 2794.16 361.165 C 2794.16 382.239 2788.68 398.958 2777.72 411.341 C 2766.75 423.684 2751.96 429.876 2733.34 429.876"/>
      <path id="path92" style="fill-opacity: 1; fill-rule: nonzero; stroke: none; fill: rgb(226, 232, 240);" d="M 2948.31 392.677 C 2937.24 396.641 2928.99 400.235 2923.62 403.516 C 2918.23 406.778 2914.4 410.372 2912.14 414.298 C 2909.87 418.223 2908.76 423.243 2908.76 429.395 C 2908.76 437.716 2911.83 444.22 2917.98 448.887 C 2924.13 453.575 2932.65 455.919 2943.58 455.919 C 2957.41 455.919 2971.67 452.852 2986.32 446.72 L 2992.74 464.649 C 2977.94 471.114 2961.71 474.337 2944.07 474.337 C 2927.16 474.337 2913.56 470.294 2903.29 462.227 C 2893 454.161 2887.86 443.282 2887.86 429.63 C 2887.86 416.622 2891.42 406.075 2898.49 398.009 C 2905.58 389.923 2917.35 382.93 2933.88 377.032 C 2945.69 372.833 2954.48 369.063 2960.28 365.782 C 2966.06 362.442 2970.19 358.848 2972.67 354.923 C 2975.13 350.997 2976.36 345.977 2976.36 339.845 C 2976.36 330.548 2972.88 323.282 2965.93 318.087 C 2958.96 312.872 2948.6 310.274 2934.83 310.274 C 2926.44 310.274 2917.94 311.173 2909.35 312.93 C 2900.77 314.727 2892.84 317.13 2885.56 320.196 L 2885.56 300.313 C 2896.9 294.923 2913.08 292.208 2934.11 292.208 C 2953.54 292.208 2968.92 296.583 2980.24 305.294 C 2991.57 314.005 2997.24 326.173 2997.24 341.759 C 2997.24 353.887 2993.74 363.751 2986.75 371.348 C 2979.74 378.946 2966.94 386.055 2948.31 392.677"/>
      <path id="path94" style="fill-opacity: 1; fill-rule: nonzero; stroke: none; fill: rgb(226, 232, 240);" d="M 3120.21 357.637 C 3120.21 340.43 3117 328.028 3110.56 320.43 C 3104.13 312.852 3093.94 309.044 3080.02 309.044 C 3069.5 309.044 3061.79 311.72 3056.85 317.032 C 3051.9 322.384 3049.44 330.47 3049.44 341.27 L 3049.44 427.442 L 3029.03 427.442 L 3029.03 340.567 C 3029.03 323.673 3033.08 311.387 3041.12 303.712 C 3049.18 296.055 3061.3 292.188 3077.47 292.188 C 3086.87 292.188 3095.22 293.946 3102.54 297.423 C 3109.87 300.88 3115.6 305.88 3119.73 312.423 L 3120.81 312.423 L 3123.73 294.63 L 3140.36 294.63 L 3140.36 427.442 L 3120.21 427.442 L 3120.21 357.637"/>
      <path id="path96" style="fill-opacity: 1; fill-rule: nonzero; stroke: none; fill: rgb(226, 232, 240);" d="M 3183.07 483.177 L 3183.07 294.622 L 3203.22 294.622 L 3203.22 483.177 L 3183.07 483.177"/>
      <g transform="scale(10)" id="g98"/>
    </g>
  </g>
</svg>